# xmcd CD database file generated by OrangeCD 5.2
#
# Track frame offsets:
#	150
#	20667
#	32325
#	40307
#	52400
#	73850
#	98487
#	112310
#	127475
#	154170
#	166075
#	174600
#	194327
#
# Disc length: 2900 seconds
#
# Revision: 2
# Processed by: cddbd v1.5.1PL2 Copyright (c) Steve Scherf et al.
# Submitted via: OrangeCD 5.2
#
DISCID=be0b520d
DTITLE=The Young Gods - The Young Gods
DYEAR=1987
DGENRE=Blues
TTITLE0=Nous De La Lune
TTITLE1=Jusqu' Au About
TTITLE2=A Ciel Ouvert
TTITLE3=Jimmy
TTITLE4=Fais La Mouette
TTITLE5=Percussionne
TTITLE6=Feu
TTITLE7=Did You Miss Me
TTITLE8=Si Tu Gardes
TTITLE9=The Irrtum Boys
TTITLE10=Envoye
TTITLE11=Soul Idiot
TTITLE12=C.s.c.l.d.f.
EXTD=
EXTT0=
EXTT1=
EXTT2=
EXTT3=
EXTT4=
EXTT5=
EXTT6=
EXTT7=
EXTT8=
EXTT9=
EXTT10=
EXTT11=
EXTT12=
PLAYORDER=
